<svg t="1744642850407" class="icon" viewBox="0 0 1024 1024" version="1.1" xmlns="http://www.w3.org/2000/svg" p-id="2143" width="200" height="200"><path d="M857.6 25.6a76.8 76.8 0 0 1 76.8 76.8v509.4528A254.9888 254.9888 0 0 0 768 550.4c-141.3888 0-256 114.6112-256 256 0 76.4672 33.536 145.1008 86.6816 192H166.4a76.8 76.8 0 0 1-76.8-76.8V102.4a76.8 76.8 0 0 1 76.8-76.8h691.2zM396.8 704h-102.4l-2.2528 0.064A38.4 38.4 0 0 0 294.4 780.8h102.4l2.2528-0.064A38.4 38.4 0 0 0 396.8 704z m153.6-230.4H294.4l-2.2528 0.064A38.4 38.4 0 0 0 294.4 550.4h256l2.2528-0.064A38.4 38.4 0 0 0 550.4 473.6z" fill="#6B57FE" p-id="2144"></path><path d="M729.6 243.2a38.4 38.4 0 0 1 2.2528 76.736L729.6 320H294.4a38.4 38.4 0 0 1-2.2528-76.736L294.4 243.2h435.2z" fill="#FFBA00" p-id="2145"></path><path d="M728.7168 614.4a40.2816 40.2816 0 0 0 79.488 0.192 194.9184 194.9184 0 0 1 75.264 33.5232 40.2688 40.2688 0 0 0 53.4656 59.0464A194.6496 194.6496 0 0 1 960 767.4496a40.2816 40.2816 0 0 0-0.192 78.784 194.752 194.752 0 0 1-26.4576 65.1648 40.2688 40.2688 0 0 0-53.5808 55.8464 194.8288 194.8288 0 0 1-71.936 30.9632A40.2816 40.2816 0 0 0 729.088 998.4a194.8288 194.8288 0 0 1-72.192-30.6688 40.2688 40.2688 0 0 0-54.016-55.936 194.7648 194.7648 0 0 1-26.6752-65.3696A40.2816 40.2816 0 0 0 576 767.2576a194.6496 194.6496 0 0 1 23.3216-60.5824 40.2688 40.2688 0 0 0 53.7984-59.008A194.8928 194.8928 0 0 1 728.704 614.4zM768 716.8a89.6 89.6 0 1 0 0 179.2 89.6 89.6 0 0 0 0-179.2z" fill="#FFBA00" p-id="2146"></path></svg>