<svg t="1744642626878" class="icon" viewBox="0 0 1024 1024" version="1.1" xmlns="http://www.w3.org/2000/svg" p-id="1835" width="200" height="200"><path d="M857.6 307.2a51.2 51.2 0 0 1 51.2 51.2v614.4a51.2 51.2 0 0 1-51.2 51.2H166.4a51.2 51.2 0 0 1-51.2-51.2V358.4a51.2 51.2 0 0 1 51.2-51.2zM307.2 460.8a38.4 38.4 0 0 0-38.4 38.4v332.8a38.4 38.4 0 0 0 76.8 0V499.2a38.4 38.4 0 0 0-38.4-38.4z m204.8 0a38.4 38.4 0 0 0-38.4 38.4v332.8a38.4 38.4 0 0 0 76.8 0V499.2a38.4 38.4 0 0 0-38.4-38.4z m204.8 0a38.4 38.4 0 0 0-38.4 38.4v332.8a38.4 38.4 0 0 0 76.8 0V499.2a38.4 38.4 0 0 0-38.4-38.4z" fill="#6B57FE" p-id="1836"></path><path d="M665.6 0a51.2 51.2 0 0 1 51.2 51.2v51.2h243.2a25.6 25.6 0 0 1 25.6 25.6v76.8a25.6 25.6 0 0 1-25.6 25.6H64a25.6 25.6 0 0 1-25.6-25.6v-76.8a25.6 25.6 0 0 1 25.6-25.6h243.2V51.2a51.2 51.2 0 0 1 51.2-51.2h307.2z" fill="#FFBA00" p-id="1837"></path></svg>