<svg t="1744642599459" class="icon" viewBox="0 0 1024 1024" version="1.1" xmlns="http://www.w3.org/2000/svg" p-id="1683" width="200" height="200"><path d="M298.8928 115.2a51.2 51.2 0 0 1 31.104 10.5344l99.8272 76.352a25.6 25.6 0 0 0 15.552 5.2736H947.2a76.8 76.8 0 0 1 76.8 76.8V832a76.8 76.8 0 0 1-76.8 76.8H76.8a76.8 76.8 0 0 1-76.8-76.8V192a76.8 76.8 0 0 1 76.8-76.8h222.0928zM588.8 537.6H435.2v179.2a25.6 25.6 0 0 0 25.6 25.6h102.4a25.6 25.6 0 0 0 25.6-25.6V537.6z" fill="#6B57FE" p-id="1684"></path><path d="M365.568 528.896l127.6672-137.4976a25.6 25.6 0 0 1 36.1856-1.3312l1.344 1.3312L658.432 528.896a12.8 12.8 0 0 1-9.3824 21.504H374.9504a12.8 12.8 0 0 1-9.3824-21.504z" fill="#FFBA00" p-id="1685"></path></svg>