<svg t="1744642756815" class="icon" viewBox="0 0 1024 1024" version="1.1" xmlns="http://www.w3.org/2000/svg" p-id="1989" width="200" height="200"><path d="M832 51.2a76.8 76.8 0 0 1 76.8 76.8v288.9728A216.576 216.576 0 0 0 793.6 384c-120.1792 0-217.6 97.4208-217.6 217.6l0.064 5.1328c0.64 27.3536 6.3616 53.8368 16.5248 78.2976l1.3184 3.072-0.2944 0.256A307.008 307.008 0 0 0 486.4 921.6c0 13.4656 2.304 26.3936 6.5536 38.4H128a76.8 76.8 0 0 1-76.8-76.8V128a76.8 76.8 0 0 1 76.8-76.8h704zM460.8 595.2H243.2l-2.2528 0.064a38.4 38.4 0 0 0 0 76.672L243.2 672h217.6l2.2528-0.064a38.4 38.4 0 0 0 0-76.672L460.8 595.2zM588.8 307.2H243.2l-2.2528 0.064a38.4 38.4 0 0 0 0 76.672L243.2 384h345.6l2.2528-0.064a38.4 38.4 0 0 0 0-76.672L588.8 307.2z" fill="#6B57FE" p-id="1990"></path><path d="M793.6 460.8c77.76 0 140.8 63.04 140.8 140.8 0 43.3792-19.6224 82.176-50.4576 108.0064C966.272 744.704 1024 826.4192 1024 921.6a38.4 38.4 0 0 1-38.4 38.4H601.6a38.4 38.4 0 0 1-38.4-38.4c0-95.1808 57.7152-176.8832 140.0576-212.0192A140.4416 140.4416 0 0 1 652.8 601.6c0-77.76 63.04-140.8 140.8-140.8z" fill="#FFBA00" p-id="1991"></path></svg>